<svg width="72" height="71" viewBox="0 0 72 71" fill="none" xmlns="http://www.w3.org/2000/svg">
<path opacity="0.2" d="M36 71C55.6061 71 71.5 55.1061 71.5 35.5C71.5 15.8939 55.6061 0 36 0C16.3939 0 0.5 15.8939 0.5 35.5C0.5 55.1061 16.3939 71 36 71Z" fill="#8BC53E"/>
<path d="M56.6885 27.35C56.1098 26.7268 55.2197 26.4598 54.4185 26.6824L47.5641 28.5519V29.0415C47.3862 30.9553 45.9617 32.5134 44.0922 32.8694L43.647 32.9585C41.1545 33.4038 38.5728 33.6261 36.0803 33.6261H34.0326C33.4095 33.6261 32.8754 33.1364 32.8754 32.4689C32.8754 31.8457 33.3651 31.3117 34.0326 31.3117H36.0803C38.4837 31.2673 40.8874 31.0891 43.2465 30.6886L43.6917 30.5994C44.5375 30.4659 45.205 29.7537 45.2941 28.8635C45.3385 28.3295 45.1606 27.8399 44.8489 27.439C44.4928 27.0385 44.0478 26.8159 43.5135 26.7715L32.6974 26.0149C31.4955 25.9257 30.294 26.2375 29.27 26.9497L19.9673 33.1808L29.092 40.5697L38.1721 41.7715C39.7745 41.9942 41.3769 41.5936 42.6676 40.6143L56.3769 30.644C56.9109 30.2878 57.2227 29.7091 57.267 29.0859C57.3117 28.4184 57.1338 27.7953 56.6886 27.35L56.6885 27.35Z" fill="#74EC65"/>
<path d="M15.2045 38.6112C14.8928 39.0117 14.9375 39.6348 15.338 39.9466L22.5487 45.7774C22.7266 45.9553 22.9939 46 23.2609 46C23.5279 45.9556 23.7505 45.8665 23.9284 45.6439L27.0441 41.8159L18.32 34.7833L15.2045 38.6112Z" fill="#74EC65"/>
</svg>
