<svg width="19" height="18" viewBox="0 0 19 18" fill="none" xmlns="http://www.w3.org/2000/svg">
<path fill-rule="evenodd" clip-rule="evenodd" d="M7.36088 0H17.4661C17.532 0.0386593 17.5816 0.115978 17.5816 0.261674C17.5816 0.697709 17.4009 3.74969 14.3268 3.81939H7.54889L7.54739 3.8158C7.51555 3.81744 7.48408 3.8192 7.45325 3.82096C4.83973 3.97876 4.24778 7.3003 4.54388 8.79145C5.60874 14.1588 8.8836 15.4537 9.32738 15.4887C9.77116 15.5237 9.96946 14.1806 9.96946 14.1806C9.96946 14.1806 10.6762 15.2967 12.2871 15.5934C13.8485 15.8809 13.5568 15.0868 13.253 14.2594C13.2433 14.2332 13.2337 14.2069 13.2241 14.1806C12.9254 13.3632 13.2555 13.3911 13.8054 13.4376C14.0284 13.4565 14.2876 13.4784 14.5556 13.4482C15.6853 13.3209 14.5819 12.2003 13.6032 11.2064C13.2377 10.8352 12.8896 10.4817 12.6818 10.2042C11.9174 9.18383 11.9903 7.22193 11.9903 7.22193C11.9903 7.22193 16.6916 7.18696 17.7107 7.16934C18.058 7.16329 18.254 7.2101 18.3627 7.27453C18.454 7.80073 18.4998 8.33472 18.4998 8.86982C18.4998 13.9124 14.4704 18 9.49975 18C4.52906 18 0.5 13.9124 0.5 8.86982C0.5 4.58884 3.40504 0.996267 7.32416 0.00916668V0H7.36088Z" fill="url(#paint0_linear_206_2774)"/>
<defs>
<linearGradient id="paint0_linear_206_2774" x1="3.03461" y1="-1" x2="3.03461" y2="14.5" gradientUnits="userSpaceOnUse">
<stop stop-color="#0B7AE1"/>
<stop offset="0.822917" stop-color="#74EC65"/>
</linearGradient>
</defs>
</svg>
