<svg width="8" height="14" viewBox="0 0 8 14" fill="none" xmlns="http://www.w3.org/2000/svg">
<path d="M7.67792 6.26291L2.01792 0.612907C1.92496 0.519178 1.81436 0.444784 1.6925 0.394016C1.57064 0.343247 1.43993 0.317108 1.30792 0.317108C1.17591 0.317108 1.0452 0.343247 0.923345 0.394015C0.801485 0.444784 0.690884 0.519178 0.597921 0.612907C0.41167 0.800269 0.307129 1.05372 0.307129 1.31791C0.307129 1.58209 0.41167 1.83554 0.597921 2.02291L5.54792 7.02291L0.597919 11.9729C0.411668 12.1603 0.307127 12.4137 0.307127 12.6779C0.307127 12.9421 0.411668 13.1955 0.597919 13.3829C0.690534 13.4774 0.800979 13.5526 0.922854 13.6041C1.04473 13.6556 1.17561 13.6824 1.30792 13.6829C1.44023 13.6824 1.57111 13.6556 1.69298 13.6041C1.81486 13.5526 1.9253 13.4774 2.01792 13.3829L7.67792 7.73291C7.77942 7.63927 7.86043 7.52561 7.91584 7.39911C7.97125 7.27261 7.99985 7.13601 7.99985 6.99791C7.99985 6.85981 7.97125 6.7232 7.91584 6.5967C7.86043 6.4702 7.77943 6.35655 7.67792 6.26291Z" fill="#08090C"/>
</svg>
