<svg width="72" height="72" viewBox="0 0 72 72" fill="none" xmlns="http://www.w3.org/2000/svg">
<path opacity="0.2" d="M36 71.5C55.6061 71.5 71.5 55.6061 71.5 36C71.5 16.3939 55.6061 0.5 36 0.5C16.3939 0.5 0.5 16.3939 0.5 36C0.5 55.6061 16.3939 71.5 36 71.5Z" fill="#8BC53E"/>
<path d="M44.155 27.545C44.5772 27.2872 44.8432 26.829 44.8432 26.336C44.8432 25.8429 44.5842 25.3859 44.1647 25.1296L27.8245 15.2053C27.3874 14.9408 26.6143 14.9308 26.1684 15.1816C25.7255 15.4309 25.1475 15.9017 25.1475 16.4129V19.7573C25.1475 20.7823 24.561 21.653 23.5486 21.8173C18.2276 22.6824 14 27.2511 14 32.7601C14 34.4051 14.404 35.9609 15.0476 37.3636C15.1466 37.5795 15.3834 37.7175 15.623 37.7175C15.8612 37.716 16.0856 37.5739 16.1828 37.358C17.4656 34.5067 19.9227 32.299 22.9342 31.3408C23.5219 31.1527 24.0097 31.2573 24.5068 31.6208C25.004 31.9844 25.1475 32.5653 25.1475 33.1826V36.2609C25.1475 36.7707 25.7229 37.2429 26.1658 37.4937C26.6117 37.746 27.379 37.7348 27.8164 37.4685L44.155 27.545Z" fill="#74EC65"/>
<path d="M57.5971 34.6991C57.5025 34.4761 57.2655 34.3285 57.0217 34.3285C56.7795 34.327 56.551 34.472 56.4549 34.6947C54.988 38.0824 52.4112 39.7983 49.7161 40.6578C49.1284 40.8459 48.6046 40.7428 48.1072 40.3792C47.6086 40.0148 47.4345 39.4353 47.4345 38.8195V35.7397C47.4345 35.2285 46.8926 34.7577 46.4496 34.5084C46.0037 34.255 45.2558 34.2661 44.8169 34.5336L28.488 44.4571C28.0658 44.7135 27.8013 45.1716 27.8013 45.6635C27.8013 46.1566 28.0632 46.6148 28.4839 46.8711L44.8256 56.7946C45.2615 57.0592 46.0012 57.0692 46.4471 56.8198C46.89 56.5688 47.4346 56.098 47.4346 55.5868V52.2424C47.4346 51.2186 48.0545 50.3494 49.0673 50.1824C54.3882 49.3173 58.6339 44.7501 58.6339 39.2396C58.6336 37.9717 58.2392 36.214 57.5971 34.6997L57.5971 34.6991Z" fill="#74EC65"/>
</svg>
