<svg width="25" height="21" viewBox="0 0 25 21" fill="none" xmlns="http://www.w3.org/2000/svg">
<path d="M24.666 3.03643C23.783 3.43837 22.834 3.71003 21.838 3.8322C22.8546 3.20672 23.6353 2.21633 24.003 1.03627C23.0516 1.61535 21.9978 2.03594 20.8763 2.26264C19.978 1.28044 18.6984 0.666672 17.2822 0.666672C14.5628 0.666672 12.3581 2.92939 12.3581 5.72028C12.3581 6.11637 12.4018 6.50209 12.4857 6.87196C8.39344 6.66121 4.7653 4.64924 2.33677 1.59174C1.91294 2.33814 1.67012 3.20627 1.67012 4.13242C1.67012 5.88571 2.53947 7.43257 3.86066 8.33881C3.05346 8.31259 2.29428 8.08526 1.63035 7.70675C1.63 7.72783 1.63 7.749 1.63 7.77027C1.63 10.2189 3.32727 12.2615 5.57979 12.7257C5.16658 12.8412 4.73159 12.9029 4.28248 12.9029C3.96521 12.9029 3.65673 12.8713 3.35615 12.8123C3.98268 14.8201 5.8011 16.2812 7.95573 16.322C6.27058 17.6774 4.14746 18.4853 1.8406 18.4853C1.44319 18.4853 1.05122 18.4614 0.666016 18.4148C2.84506 19.8486 5.43327 20.6852 8.21391 20.6852C17.2707 20.6852 22.2233 12.9845 22.2233 6.3063C22.2233 6.08717 22.2185 5.86922 22.209 5.65252C23.171 4.94 24.0059 4.04989 24.666 3.03643Z" fill="#74EC65"/>
</svg>
